<mxfile host="app.diagrams.net" modified="2023-03-01T14:44:20.968Z" agent="5.0 (Macintosh; Intel Mac OS X 10_15_7) AppleWebKit/605.1.15 (KHTML, like Gecko) Version/16.3 Safari/605.1.15" etag="xnxUCXIH5FsmGKQehPsl" version="20.8.23" type="github" pages="2">
  <diagram name="Use Case" id="kKz40jM0O3g3SgWzmov4">
    <mxGraphModel dx="954" dy="675" grid="1" gridSize="10" guides="1" tooltips="1" connect="1" arrows="1" fold="1" page="1" pageScale="1" pageWidth="827" pageHeight="1169" math="0" shadow="0">
      <root>
        <mxCell id="0" />
        <mxCell id="1" parent="0" />
        <mxCell id="w2alraYmH5xoED8N3jX8-1" value="Guest" style="shape=umlActor;verticalLabelPosition=bottom;verticalAlign=top;html=1;" parent="1" vertex="1">
          <mxGeometry x="120" y="140" width="30" height="60" as="geometry" />
        </mxCell>
        <mxCell id="w2alraYmH5xoED8N3jX8-2" value="Moderator" style="shape=umlActor;verticalLabelPosition=bottom;verticalAlign=top;html=1;" parent="1" vertex="1">
          <mxGeometry x="770" y="315" width="30" height="60" as="geometry" />
        </mxCell>
        <mxCell id="w2alraYmH5xoED8N3jX8-3" value="User" style="shape=umlActor;verticalLabelPosition=bottom;verticalAlign=top;html=1;" parent="1" vertex="1">
          <mxGeometry x="110" y="500" width="30" height="60" as="geometry" />
        </mxCell>
        <mxCell id="w2alraYmH5xoED8N3jX8-4" value="View Popular Videos" style="ellipse;whiteSpace=wrap;html=1;" parent="1" vertex="1">
          <mxGeometry x="310" y="40" width="140" height="70" as="geometry" />
        </mxCell>
        <mxCell id="w2alraYmH5xoED8N3jX8-5" value="Register" style="ellipse;whiteSpace=wrap;html=1;" parent="1" vertex="1">
          <mxGeometry x="470" y="210" width="140" height="70" as="geometry" />
        </mxCell>
        <mxCell id="w2alraYmH5xoED8N3jX8-6" value="Login" style="ellipse;whiteSpace=wrap;html=1;" parent="1" vertex="1">
          <mxGeometry x="430" y="390" width="140" height="70" as="geometry" />
        </mxCell>
        <mxCell id="w2alraYmH5xoED8N3jX8-7" value="" style="endArrow=classic;html=1;rounded=0;entryX=0;entryY=0.5;entryDx=0;entryDy=0;" parent="1" target="w2alraYmH5xoED8N3jX8-4" edge="1">
          <mxGeometry width="50" height="50" relative="1" as="geometry">
            <mxPoint x="160" y="180" as="sourcePoint" />
            <mxPoint x="530" y="190" as="targetPoint" />
          </mxGeometry>
        </mxCell>
        <mxCell id="w2alraYmH5xoED8N3jX8-8" value="Search Video" style="ellipse;whiteSpace=wrap;html=1;" parent="1" vertex="1">
          <mxGeometry x="300" y="150" width="140" height="70" as="geometry" />
        </mxCell>
        <mxCell id="w2alraYmH5xoED8N3jX8-9" value="" style="endArrow=classic;html=1;rounded=0;entryX=0;entryY=0.5;entryDx=0;entryDy=0;" parent="1" target="w2alraYmH5xoED8N3jX8-8" edge="1">
          <mxGeometry width="50" height="50" relative="1" as="geometry">
            <mxPoint x="160" y="210" as="sourcePoint" />
            <mxPoint x="240" y="190" as="targetPoint" />
          </mxGeometry>
        </mxCell>
        <mxCell id="w2alraYmH5xoED8N3jX8-10" value="" style="endArrow=classic;html=1;rounded=0;entryX=0;entryY=0.5;entryDx=0;entryDy=0;" parent="1" target="w2alraYmH5xoED8N3jX8-5" edge="1">
          <mxGeometry width="50" height="50" relative="1" as="geometry">
            <mxPoint x="160" y="230" as="sourcePoint" />
            <mxPoint x="300" y="265" as="targetPoint" />
          </mxGeometry>
        </mxCell>
        <mxCell id="w2alraYmH5xoED8N3jX8-11" value="&amp;lt;&amp;lt;include&amp;gt;&amp;gt;" style="endArrow=open;endSize=12;dashed=1;html=1;rounded=0;exitX=0.5;exitY=0;exitDx=0;exitDy=0;entryX=0.5;entryY=1;entryDx=0;entryDy=0;" parent="1" source="w2alraYmH5xoED8N3jX8-6" target="w2alraYmH5xoED8N3jX8-5" edge="1">
          <mxGeometry width="160" relative="1" as="geometry">
            <mxPoint x="390" y="420" as="sourcePoint" />
            <mxPoint x="550" y="420" as="targetPoint" />
          </mxGeometry>
        </mxCell>
        <mxCell id="w2alraYmH5xoED8N3jX8-12" value="" style="endArrow=classic;html=1;rounded=0;entryX=0.107;entryY=0.886;entryDx=0;entryDy=0;entryPerimeter=0;" parent="1" target="w2alraYmH5xoED8N3jX8-6" edge="1">
          <mxGeometry width="50" height="50" relative="1" as="geometry">
            <mxPoint x="160" y="540" as="sourcePoint" />
            <mxPoint x="320" y="365" as="targetPoint" />
          </mxGeometry>
        </mxCell>
        <mxCell id="w2alraYmH5xoED8N3jX8-13" value="Publish Video" style="ellipse;whiteSpace=wrap;html=1;" parent="1" vertex="1">
          <mxGeometry x="390" y="560" width="140" height="70" as="geometry" />
        </mxCell>
        <mxCell id="w2alraYmH5xoED8N3jX8-14" value="" style="endArrow=classic;html=1;rounded=0;entryX=0;entryY=0.5;entryDx=0;entryDy=0;" parent="1" target="w2alraYmH5xoED8N3jX8-13" edge="1">
          <mxGeometry width="50" height="50" relative="1" as="geometry">
            <mxPoint x="160" y="560" as="sourcePoint" />
            <mxPoint x="420" y="495" as="targetPoint" />
          </mxGeometry>
        </mxCell>
        <mxCell id="w2alraYmH5xoED8N3jX8-15" value="Approve New Video" style="ellipse;whiteSpace=wrap;html=1;" parent="1" vertex="1">
          <mxGeometry x="570" y="480" width="140" height="70" as="geometry" />
        </mxCell>
        <mxCell id="w2alraYmH5xoED8N3jX8-16" value="Deny New Video" style="ellipse;whiteSpace=wrap;html=1;" parent="1" vertex="1">
          <mxGeometry x="570" y="330" width="140" height="70" as="geometry" />
        </mxCell>
        <mxCell id="w2alraYmH5xoED8N3jX8-18" value="" style="endArrow=classic;html=1;rounded=0;entryX=1;entryY=0;entryDx=0;entryDy=0;" parent="1" target="w2alraYmH5xoED8N3jX8-15" edge="1">
          <mxGeometry width="50" height="50" relative="1" as="geometry">
            <mxPoint x="760" y="410" as="sourcePoint" />
            <mxPoint x="420" y="485" as="targetPoint" />
          </mxGeometry>
        </mxCell>
        <mxCell id="w2alraYmH5xoED8N3jX8-19" value="&amp;lt;&amp;lt;include&amp;gt;&amp;gt;" style="endArrow=open;endSize=12;dashed=1;html=1;rounded=0;exitX=1;exitY=0;exitDx=0;exitDy=0;entryX=0;entryY=0.5;entryDx=0;entryDy=0;" parent="1" source="w2alraYmH5xoED8N3jX8-13" target="w2alraYmH5xoED8N3jX8-15" edge="1">
          <mxGeometry width="160" relative="1" as="geometry">
            <mxPoint x="490" y="450" as="sourcePoint" />
            <mxPoint x="390" y="400" as="targetPoint" />
          </mxGeometry>
        </mxCell>
        <mxCell id="w2alraYmH5xoED8N3jX8-20" value="Set Serach Filters" style="ellipse;whiteSpace=wrap;html=1;" parent="1" vertex="1">
          <mxGeometry x="540" y="120" width="140" height="70" as="geometry" />
        </mxCell>
        <mxCell id="w2alraYmH5xoED8N3jX8-21" value="&amp;lt;&amp;lt;extend&amp;gt;&amp;gt;" style="endArrow=open;endSize=12;dashed=1;html=1;rounded=0;exitX=0;exitY=0.5;exitDx=0;exitDy=0;entryX=1;entryY=0.5;entryDx=0;entryDy=0;" parent="1" source="w2alraYmH5xoED8N3jX8-20" target="w2alraYmH5xoED8N3jX8-8" edge="1">
          <mxGeometry width="160" relative="1" as="geometry">
            <mxPoint x="490" y="450" as="sourcePoint" />
            <mxPoint x="390" y="400" as="targetPoint" />
          </mxGeometry>
        </mxCell>
        <mxCell id="w2alraYmH5xoED8N3jX8-22" value="" style="endArrow=classic;html=1;rounded=0;entryX=1;entryY=0.5;entryDx=0;entryDy=0;" parent="1" target="w2alraYmH5xoED8N3jX8-16" edge="1">
          <mxGeometry width="50" height="50" relative="1" as="geometry">
            <mxPoint x="750" y="400" as="sourcePoint" />
            <mxPoint x="739" y="535" as="targetPoint" />
          </mxGeometry>
        </mxCell>
        <mxCell id="w2alraYmH5xoED8N3jX8-23" value="Like/Dislike Video" style="ellipse;whiteSpace=wrap;html=1;" parent="1" vertex="1">
          <mxGeometry x="320" y="260" width="140" height="70" as="geometry" />
        </mxCell>
        <mxCell id="w2alraYmH5xoED8N3jX8-24" value="Play Video" style="ellipse;whiteSpace=wrap;html=1;" parent="1" vertex="1">
          <mxGeometry x="210" y="375" width="140" height="70" as="geometry" />
        </mxCell>
        <mxCell id="w2alraYmH5xoED8N3jX8-25" value="" style="endArrow=classic;html=1;rounded=0;entryX=0;entryY=1;entryDx=0;entryDy=0;" parent="1" target="w2alraYmH5xoED8N3jX8-24" edge="1">
          <mxGeometry width="50" height="50" relative="1" as="geometry">
            <mxPoint x="160" y="520" as="sourcePoint" />
            <mxPoint x="424" y="435" as="targetPoint" />
          </mxGeometry>
        </mxCell>
        <mxCell id="w2alraYmH5xoED8N3jX8-26" value="" style="endArrow=classic;html=1;rounded=0;entryX=0;entryY=0;entryDx=0;entryDy=0;" parent="1" target="w2alraYmH5xoED8N3jX8-24" edge="1">
          <mxGeometry width="50" height="50" relative="1" as="geometry">
            <mxPoint x="160" y="250" as="sourcePoint" />
            <mxPoint x="354" y="400" as="targetPoint" />
          </mxGeometry>
        </mxCell>
        <mxCell id="w2alraYmH5xoED8N3jX8-28" value="&amp;lt;&amp;lt;extend&amp;gt;&amp;gt;" style="endArrow=open;endSize=12;dashed=1;html=1;rounded=0;exitX=0.5;exitY=1;exitDx=0;exitDy=0;entryX=0.671;entryY=-0.014;entryDx=0;entryDy=0;entryPerimeter=0;" parent="1" source="w2alraYmH5xoED8N3jX8-23" target="w2alraYmH5xoED8N3jX8-24" edge="1">
          <mxGeometry width="160" relative="1" as="geometry">
            <mxPoint x="550" y="165" as="sourcePoint" />
            <mxPoint x="450" y="195" as="targetPoint" />
          </mxGeometry>
        </mxCell>
        <mxCell id="w2alraYmH5xoED8N3jX8-29" value="YouTube" style="shape=umlFrame;whiteSpace=wrap;html=1;pointerEvents=0;width=80;height=30;" parent="1" vertex="1">
          <mxGeometry x="180" y="10" width="560" height="660" as="geometry" />
        </mxCell>
      </root>
    </mxGraphModel>
  </diagram>
  <diagram id="yUOKO2CroPijk6qew7Xr" name="Classes">
    <mxGraphModel dx="954" dy="675" grid="1" gridSize="10" guides="1" tooltips="1" connect="1" arrows="1" fold="1" page="1" pageScale="1" pageWidth="827" pageHeight="1169" math="0" shadow="0">
      <root>
        <mxCell id="0" />
        <mxCell id="1" parent="0" />
        <mxCell id="qO4vvVn3k6_E3csfropo-20" value="" style="group" vertex="1" connectable="0" parent="1">
          <mxGeometry x="50" y="100" width="400" height="380" as="geometry" />
        </mxCell>
        <mxCell id="qO4vvVn3k6_E3csfropo-1" value="Use" style="endArrow=open;endSize=12;dashed=1;html=1;rounded=0;" edge="1" parent="qO4vvVn3k6_E3csfropo-20">
          <mxGeometry width="160" relative="1" as="geometry">
            <mxPoint x="30" y="270" as="sourcePoint" />
            <mxPoint x="190" y="270" as="targetPoint" />
          </mxGeometry>
        </mxCell>
        <mxCell id="qO4vvVn3k6_E3csfropo-2" value="" style="endArrow=none;html=1;edgeStyle=orthogonalEdgeStyle;rounded=0;" edge="1" parent="qO4vvVn3k6_E3csfropo-20">
          <mxGeometry relative="1" as="geometry">
            <mxPoint x="30" y="79" as="sourcePoint" />
            <mxPoint x="190" y="79" as="targetPoint" />
          </mxGeometry>
        </mxCell>
        <mxCell id="qO4vvVn3k6_E3csfropo-3" value="parent" style="edgeLabel;resizable=0;html=1;align=left;verticalAlign=bottom;" connectable="0" vertex="1" parent="qO4vvVn3k6_E3csfropo-2">
          <mxGeometry x="-1" relative="1" as="geometry" />
        </mxCell>
        <mxCell id="qO4vvVn3k6_E3csfropo-4" value="child" style="edgeLabel;resizable=0;html=1;align=right;verticalAlign=bottom;" connectable="0" vertex="1" parent="qO4vvVn3k6_E3csfropo-2">
          <mxGeometry x="1" relative="1" as="geometry" />
        </mxCell>
        <mxCell id="qO4vvVn3k6_E3csfropo-5" value="1" style="endArrow=open;html=1;endSize=12;startArrow=diamondThin;startSize=14;startFill=0;edgeStyle=orthogonalEdgeStyle;align=left;verticalAlign=bottom;rounded=0;" edge="1" parent="qO4vvVn3k6_E3csfropo-20">
          <mxGeometry x="-1" y="3" relative="1" as="geometry">
            <mxPoint x="30" y="220" as="sourcePoint" />
            <mxPoint x="190" y="220" as="targetPoint" />
          </mxGeometry>
        </mxCell>
        <mxCell id="qO4vvVn3k6_E3csfropo-6" value="1" style="endArrow=open;html=1;endSize=12;startArrow=diamondThin;startSize=14;startFill=1;edgeStyle=orthogonalEdgeStyle;align=left;verticalAlign=bottom;rounded=0;" edge="1" parent="qO4vvVn3k6_E3csfropo-20">
          <mxGeometry x="-1" y="3" relative="1" as="geometry">
            <mxPoint x="30" y="189.5" as="sourcePoint" />
            <mxPoint x="190" y="189.5" as="targetPoint" />
          </mxGeometry>
        </mxCell>
        <mxCell id="qO4vvVn3k6_E3csfropo-7" value="Extends" style="endArrow=block;endSize=16;endFill=0;html=1;rounded=0;" edge="1" parent="qO4vvVn3k6_E3csfropo-20">
          <mxGeometry width="160" relative="1" as="geometry">
            <mxPoint x="30" y="320" as="sourcePoint" />
            <mxPoint x="190" y="320" as="targetPoint" />
          </mxGeometry>
        </mxCell>
        <mxCell id="qO4vvVn3k6_E3csfropo-8" value="" style="endArrow=block;startArrow=block;endFill=1;startFill=1;html=1;rounded=0;" edge="1" parent="qO4vvVn3k6_E3csfropo-20">
          <mxGeometry width="160" relative="1" as="geometry">
            <mxPoint x="30" y="129" as="sourcePoint" />
            <mxPoint x="190" y="129" as="targetPoint" />
          </mxGeometry>
        </mxCell>
        <mxCell id="qO4vvVn3k6_E3csfropo-10" value="" style="endArrow=block;dashed=1;endFill=0;endSize=12;html=1;rounded=0;" edge="1" parent="qO4vvVn3k6_E3csfropo-20">
          <mxGeometry width="160" relative="1" as="geometry">
            <mxPoint x="30" y="350" as="sourcePoint" />
            <mxPoint x="190" y="350" as="targetPoint" />
          </mxGeometry>
        </mxCell>
        <mxCell id="qO4vvVn3k6_E3csfropo-11" value="" style="endArrow=open;endFill=1;endSize=12;html=1;rounded=0;" edge="1" parent="qO4vvVn3k6_E3csfropo-20">
          <mxGeometry width="160" relative="1" as="geometry">
            <mxPoint x="30" y="99" as="sourcePoint" />
            <mxPoint x="190" y="99" as="targetPoint" />
          </mxGeometry>
        </mxCell>
        <mxCell id="qO4vvVn3k6_E3csfropo-13" value="Relationship Types" style="shape=umlFrame;whiteSpace=wrap;html=1;pointerEvents=0;width=130;height=40;" vertex="1" parent="qO4vvVn3k6_E3csfropo-20">
          <mxGeometry width="400" height="380" as="geometry" />
        </mxCell>
        <mxCell id="qO4vvVn3k6_E3csfropo-15" value="звʼязки асоціативні, &lt;br&gt;кількісний звʼязок&lt;br&gt;між двома класами" style="text;html=1;align=center;verticalAlign=middle;resizable=0;points=[];autosize=1;strokeColor=none;fillColor=none;" vertex="1" parent="qO4vvVn3k6_E3csfropo-20">
          <mxGeometry x="210" y="70" width="140" height="60" as="geometry" />
        </mxCell>
        <mxCell id="qO4vvVn3k6_E3csfropo-17" value="звʼязок композиції &lt;br&gt;та&lt;br&gt;агрегації обʼєктів" style="text;html=1;align=center;verticalAlign=middle;resizable=0;points=[];autosize=1;strokeColor=none;fillColor=none;" vertex="1" parent="qO4vvVn3k6_E3csfropo-20">
          <mxGeometry x="215" y="170" width="130" height="60" as="geometry" />
        </mxCell>
        <mxCell id="qO4vvVn3k6_E3csfropo-18" value="звʼязок наслідування &lt;br&gt;або &lt;br&gt;реалізація інтерфейсу" style="text;html=1;align=center;verticalAlign=middle;resizable=0;points=[];autosize=1;strokeColor=none;fillColor=none;" vertex="1" parent="qO4vvVn3k6_E3csfropo-20">
          <mxGeometry x="215" y="300" width="150" height="60" as="geometry" />
        </mxCell>
        <mxCell id="qO4vvVn3k6_E3csfropo-19" value="звʼязок залежності обʼктів" style="text;html=1;align=center;verticalAlign=middle;resizable=0;points=[];autosize=1;strokeColor=none;fillColor=none;" vertex="1" parent="qO4vvVn3k6_E3csfropo-20">
          <mxGeometry x="205" y="255" width="170" height="30" as="geometry" />
        </mxCell>
        <mxCell id="qO4vvVn3k6_E3csfropo-21" value="Transport" style="swimlane;fontStyle=1;align=center;verticalAlign=top;childLayout=stackLayout;horizontal=1;startSize=26;horizontalStack=0;resizeParent=1;resizeParentMax=0;resizeLast=0;collapsible=1;marginBottom=0;" vertex="1" parent="1">
          <mxGeometry x="290" y="540" width="160" height="216" as="geometry" />
        </mxCell>
        <mxCell id="qO4vvVn3k6_E3csfropo-22" value="- model: string" style="text;strokeColor=none;fillColor=none;align=left;verticalAlign=top;spacingLeft=4;spacingRight=4;overflow=hidden;rotatable=0;points=[[0,0.5],[1,0.5]];portConstraint=eastwest;" vertex="1" parent="qO4vvVn3k6_E3csfropo-21">
          <mxGeometry y="26" width="160" height="26" as="geometry" />
        </mxCell>
        <mxCell id="qO4vvVn3k6_E3csfropo-28" value="- color: string" style="text;strokeColor=none;fillColor=none;align=left;verticalAlign=top;spacingLeft=4;spacingRight=4;overflow=hidden;rotatable=0;points=[[0,0.5],[1,0.5]];portConstraint=eastwest;" vertex="1" parent="qO4vvVn3k6_E3csfropo-21">
          <mxGeometry y="52" width="160" height="26" as="geometry" />
        </mxCell>
        <mxCell id="qO4vvVn3k6_E3csfropo-29" value="- year: int" style="text;strokeColor=none;fillColor=none;align=left;verticalAlign=top;spacingLeft=4;spacingRight=4;overflow=hidden;rotatable=0;points=[[0,0.5],[1,0.5]];portConstraint=eastwest;" vertex="1" parent="qO4vvVn3k6_E3csfropo-21">
          <mxGeometry y="78" width="160" height="26" as="geometry" />
        </mxCell>
        <mxCell id="qO4vvVn3k6_E3csfropo-58" value="- engine: Engine" style="text;strokeColor=none;fillColor=none;align=left;verticalAlign=top;spacingLeft=4;spacingRight=4;overflow=hidden;rotatable=0;points=[[0,0.5],[1,0.5]];portConstraint=eastwest;" vertex="1" parent="qO4vvVn3k6_E3csfropo-21">
          <mxGeometry y="104" width="160" height="26" as="geometry" />
        </mxCell>
        <mxCell id="qO4vvVn3k6_E3csfropo-23" value="" style="line;strokeWidth=1;fillColor=none;align=left;verticalAlign=middle;spacingTop=-1;spacingLeft=3;spacingRight=3;rotatable=0;labelPosition=right;points=[];portConstraint=eastwest;strokeColor=inherit;" vertex="1" parent="qO4vvVn3k6_E3csfropo-21">
          <mxGeometry y="130" width="160" height="8" as="geometry" />
        </mxCell>
        <mxCell id="qO4vvVn3k6_E3csfropo-24" value="+ ctor(model: model)" style="text;strokeColor=none;fillColor=none;align=left;verticalAlign=top;spacingLeft=4;spacingRight=4;overflow=hidden;rotatable=0;points=[[0,0.5],[1,0.5]];portConstraint=eastwest;" vertex="1" parent="qO4vvVn3k6_E3csfropo-21">
          <mxGeometry y="138" width="160" height="26" as="geometry" />
        </mxCell>
        <mxCell id="qO4vvVn3k6_E3csfropo-30" value="+ SetColor(value: string)" style="text;strokeColor=none;fillColor=none;align=left;verticalAlign=top;spacingLeft=4;spacingRight=4;overflow=hidden;rotatable=0;points=[[0,0.5],[1,0.5]];portConstraint=eastwest;" vertex="1" parent="qO4vvVn3k6_E3csfropo-21">
          <mxGeometry y="164" width="160" height="26" as="geometry" />
        </mxCell>
        <mxCell id="qO4vvVn3k6_E3csfropo-31" value="+ Show() { const, virtual }" style="text;strokeColor=none;fillColor=none;align=left;verticalAlign=top;spacingLeft=4;spacingRight=4;overflow=hidden;rotatable=0;points=[[0,0.5],[1,0.5]];portConstraint=eastwest;" vertex="1" parent="qO4vvVn3k6_E3csfropo-21">
          <mxGeometry y="190" width="160" height="26" as="geometry" />
        </mxCell>
        <mxCell id="qO4vvVn3k6_E3csfropo-27" value="" style="group" vertex="1" connectable="0" parent="1">
          <mxGeometry x="500" y="340" width="105" height="117" as="geometry" />
        </mxCell>
        <mxCell id="qO4vvVn3k6_E3csfropo-25" value="Access Specifiers" style="shape=umlFrame;whiteSpace=wrap;html=1;pointerEvents=0;width=75;height=37;" vertex="1" parent="qO4vvVn3k6_E3csfropo-27">
          <mxGeometry width="105" height="117" as="geometry" />
        </mxCell>
        <mxCell id="qO4vvVn3k6_E3csfropo-26" value="&lt;div style=&quot;text-align: left;&quot;&gt;- private&lt;/div&gt;&lt;div style=&quot;text-align: left;&quot;&gt;+ public&lt;/div&gt;&lt;div style=&quot;text-align: left;&quot;&gt;# protected&lt;/div&gt;" style="text;html=1;align=center;verticalAlign=middle;resizable=0;points=[];autosize=1;strokeColor=none;fillColor=none;" vertex="1" parent="qO4vvVn3k6_E3csfropo-27">
          <mxGeometry x="12.5" y="47" width="80" height="60" as="geometry" />
        </mxCell>
        <mxCell id="qO4vvVn3k6_E3csfropo-32" value="Bus" style="swimlane;fontStyle=1;align=center;verticalAlign=top;childLayout=stackLayout;horizontal=1;startSize=26;horizontalStack=0;resizeParent=1;resizeParentMax=0;resizeLast=0;collapsible=1;marginBottom=0;" vertex="1" parent="1">
          <mxGeometry x="160" y="840" width="190" height="164" as="geometry" />
        </mxCell>
        <mxCell id="qO4vvVn3k6_E3csfropo-45" value="- places: int" style="text;strokeColor=none;fillColor=none;align=left;verticalAlign=top;spacingLeft=4;spacingRight=4;overflow=hidden;rotatable=0;points=[[0,0.5],[1,0.5]];portConstraint=eastwest;" vertex="1" parent="qO4vvVn3k6_E3csfropo-32">
          <mxGeometry y="26" width="190" height="26" as="geometry" />
        </mxCell>
        <mxCell id="qO4vvVn3k6_E3csfropo-82" value="- route: int" style="text;strokeColor=none;fillColor=none;align=left;verticalAlign=top;spacingLeft=4;spacingRight=4;overflow=hidden;rotatable=0;points=[[0,0.5],[1,0.5]];portConstraint=eastwest;" vertex="1" parent="qO4vvVn3k6_E3csfropo-32">
          <mxGeometry y="52" width="190" height="26" as="geometry" />
        </mxCell>
        <mxCell id="qO4vvVn3k6_E3csfropo-33" value="- passengers: vector&lt;Passenger&gt;" style="text;strokeColor=none;fillColor=none;align=left;verticalAlign=top;spacingLeft=4;spacingRight=4;overflow=hidden;rotatable=0;points=[[0,0.5],[1,0.5]];portConstraint=eastwest;" vertex="1" parent="qO4vvVn3k6_E3csfropo-32">
          <mxGeometry y="78" width="190" height="26" as="geometry" />
        </mxCell>
        <mxCell id="qO4vvVn3k6_E3csfropo-34" value="" style="line;strokeWidth=1;fillColor=none;align=left;verticalAlign=middle;spacingTop=-1;spacingLeft=3;spacingRight=3;rotatable=0;labelPosition=right;points=[];portConstraint=eastwest;strokeColor=inherit;" vertex="1" parent="qO4vvVn3k6_E3csfropo-32">
          <mxGeometry y="104" width="190" height="8" as="geometry" />
        </mxCell>
        <mxCell id="qO4vvVn3k6_E3csfropo-47" value="+ ctor()" style="text;strokeColor=none;fillColor=none;align=left;verticalAlign=top;spacingLeft=4;spacingRight=4;overflow=hidden;rotatable=0;points=[[0,0.5],[1,0.5]];portConstraint=eastwest;" vertex="1" parent="qO4vvVn3k6_E3csfropo-32">
          <mxGeometry y="112" width="190" height="26" as="geometry" />
        </mxCell>
        <mxCell id="qO4vvVn3k6_E3csfropo-35" value="+ Show() { const, override }" style="text;strokeColor=none;fillColor=none;align=left;verticalAlign=top;spacingLeft=4;spacingRight=4;overflow=hidden;rotatable=0;points=[[0,0.5],[1,0.5]];portConstraint=eastwest;" vertex="1" parent="qO4vvVn3k6_E3csfropo-32">
          <mxGeometry y="138" width="190" height="26" as="geometry" />
        </mxCell>
        <mxCell id="qO4vvVn3k6_E3csfropo-36" value="Airplane" style="swimlane;fontStyle=1;align=center;verticalAlign=top;childLayout=stackLayout;horizontal=1;startSize=26;horizontalStack=0;resizeParent=1;resizeParentMax=0;resizeLast=0;collapsible=1;marginBottom=0;" vertex="1" parent="1">
          <mxGeometry x="414" y="840" width="160" height="164" as="geometry" />
        </mxCell>
        <mxCell id="qO4vvVn3k6_E3csfropo-37" value="- flyHeight: double" style="text;strokeColor=none;fillColor=none;align=left;verticalAlign=top;spacingLeft=4;spacingRight=4;overflow=hidden;rotatable=0;points=[[0,0.5],[1,0.5]];portConstraint=eastwest;" vertex="1" parent="qO4vvVn3k6_E3csfropo-36">
          <mxGeometry y="26" width="160" height="26" as="geometry" />
        </mxCell>
        <mxCell id="qO4vvVn3k6_E3csfropo-55" value="- primary: Pilot&#xa;" style="text;strokeColor=none;fillColor=none;align=left;verticalAlign=top;spacingLeft=4;spacingRight=4;overflow=hidden;rotatable=0;points=[[0,0.5],[1,0.5]];portConstraint=eastwest;" vertex="1" parent="qO4vvVn3k6_E3csfropo-36">
          <mxGeometry y="52" width="160" height="26" as="geometry" />
        </mxCell>
        <mxCell id="qO4vvVn3k6_E3csfropo-56" value="- secondary: Pilot&#xa;" style="text;strokeColor=none;fillColor=none;align=left;verticalAlign=top;spacingLeft=4;spacingRight=4;overflow=hidden;rotatable=0;points=[[0,0.5],[1,0.5]];portConstraint=eastwest;" vertex="1" parent="qO4vvVn3k6_E3csfropo-36">
          <mxGeometry y="78" width="160" height="26" as="geometry" />
        </mxCell>
        <mxCell id="qO4vvVn3k6_E3csfropo-38" value="" style="line;strokeWidth=1;fillColor=none;align=left;verticalAlign=middle;spacingTop=-1;spacingLeft=3;spacingRight=3;rotatable=0;labelPosition=right;points=[];portConstraint=eastwest;strokeColor=inherit;" vertex="1" parent="qO4vvVn3k6_E3csfropo-36">
          <mxGeometry y="104" width="160" height="8" as="geometry" />
        </mxCell>
        <mxCell id="qO4vvVn3k6_E3csfropo-39" value="+ ctor()" style="text;strokeColor=none;fillColor=none;align=left;verticalAlign=top;spacingLeft=4;spacingRight=4;overflow=hidden;rotatable=0;points=[[0,0.5],[1,0.5]];portConstraint=eastwest;" vertex="1" parent="qO4vvVn3k6_E3csfropo-36">
          <mxGeometry y="112" width="160" height="26" as="geometry" />
        </mxCell>
        <mxCell id="qO4vvVn3k6_E3csfropo-49" value="+ Show() { const, override }" style="text;strokeColor=none;fillColor=none;align=left;verticalAlign=top;spacingLeft=4;spacingRight=4;overflow=hidden;rotatable=0;points=[[0,0.5],[1,0.5]];portConstraint=eastwest;" vertex="1" parent="qO4vvVn3k6_E3csfropo-36">
          <mxGeometry y="138" width="160" height="26" as="geometry" />
        </mxCell>
        <mxCell id="qO4vvVn3k6_E3csfropo-40" value="Extends" style="endArrow=block;endSize=16;endFill=0;html=1;rounded=0;exitX=0.5;exitY=0;exitDx=0;exitDy=0;" edge="1" parent="1" source="qO4vvVn3k6_E3csfropo-32" target="qO4vvVn3k6_E3csfropo-31">
          <mxGeometry width="160" relative="1" as="geometry">
            <mxPoint x="210" y="800" as="sourcePoint" />
            <mxPoint x="336" y="730" as="targetPoint" />
          </mxGeometry>
        </mxCell>
        <mxCell id="qO4vvVn3k6_E3csfropo-41" value="Extends" style="endArrow=block;endSize=16;endFill=0;html=1;rounded=0;exitX=0.5;exitY=0;exitDx=0;exitDy=0;" edge="1" parent="1" source="qO4vvVn3k6_E3csfropo-36" target="qO4vvVn3k6_E3csfropo-31">
          <mxGeometry width="160" relative="1" as="geometry">
            <mxPoint x="210" y="860" as="sourcePoint" />
            <mxPoint x="370" y="741" as="targetPoint" />
          </mxGeometry>
        </mxCell>
        <mxCell id="qO4vvVn3k6_E3csfropo-50" value="Pilot" style="swimlane;fontStyle=1;align=center;verticalAlign=top;childLayout=stackLayout;horizontal=1;startSize=26;horizontalStack=0;resizeParent=1;resizeParentMax=0;resizeLast=0;collapsible=1;marginBottom=0;" vertex="1" parent="1">
          <mxGeometry x="610" y="630" width="160" height="112" as="geometry" />
        </mxCell>
        <mxCell id="qO4vvVn3k6_E3csfropo-51" value="- fullName: string" style="text;strokeColor=none;fillColor=none;align=left;verticalAlign=top;spacingLeft=4;spacingRight=4;overflow=hidden;rotatable=0;points=[[0,0.5],[1,0.5]];portConstraint=eastwest;" vertex="1" parent="qO4vvVn3k6_E3csfropo-50">
          <mxGeometry y="26" width="160" height="26" as="geometry" />
        </mxCell>
        <mxCell id="qO4vvVn3k6_E3csfropo-54" value="- experience: long" style="text;strokeColor=none;fillColor=none;align=left;verticalAlign=top;spacingLeft=4;spacingRight=4;overflow=hidden;rotatable=0;points=[[0,0.5],[1,0.5]];portConstraint=eastwest;" vertex="1" parent="qO4vvVn3k6_E3csfropo-50">
          <mxGeometry y="52" width="160" height="26" as="geometry" />
        </mxCell>
        <mxCell id="qO4vvVn3k6_E3csfropo-52" value="" style="line;strokeWidth=1;fillColor=none;align=left;verticalAlign=middle;spacingTop=-1;spacingLeft=3;spacingRight=3;rotatable=0;labelPosition=right;points=[];portConstraint=eastwest;strokeColor=inherit;" vertex="1" parent="qO4vvVn3k6_E3csfropo-50">
          <mxGeometry y="78" width="160" height="8" as="geometry" />
        </mxCell>
        <mxCell id="qO4vvVn3k6_E3csfropo-53" value="+ ctor(name)" style="text;strokeColor=none;fillColor=none;align=left;verticalAlign=top;spacingLeft=4;spacingRight=4;overflow=hidden;rotatable=0;points=[[0,0.5],[1,0.5]];portConstraint=eastwest;" vertex="1" parent="qO4vvVn3k6_E3csfropo-50">
          <mxGeometry y="86" width="160" height="26" as="geometry" />
        </mxCell>
        <mxCell id="qO4vvVn3k6_E3csfropo-57" value="2" style="endArrow=open;html=1;endSize=12;startArrow=diamondThin;startSize=14;startFill=0;edgeStyle=orthogonalEdgeStyle;align=left;verticalAlign=bottom;rounded=0;exitX=1;exitY=0.5;exitDx=0;exitDy=0;entryX=0.463;entryY=1.038;entryDx=0;entryDy=0;entryPerimeter=0;" edge="1" parent="1" source="qO4vvVn3k6_E3csfropo-55" target="qO4vvVn3k6_E3csfropo-53">
          <mxGeometry x="-0.9559" y="5" relative="1" as="geometry">
            <mxPoint x="600" y="900" as="sourcePoint" />
            <mxPoint x="760" y="900" as="targetPoint" />
            <mxPoint as="offset" />
          </mxGeometry>
        </mxCell>
        <mxCell id="qO4vvVn3k6_E3csfropo-59" value="Engine" style="swimlane;fontStyle=1;align=center;verticalAlign=top;childLayout=stackLayout;horizontal=1;startSize=26;horizontalStack=0;resizeParent=1;resizeParentMax=0;resizeLast=0;collapsible=1;marginBottom=0;" vertex="1" parent="1">
          <mxGeometry x="40" y="560" width="160" height="112" as="geometry" />
        </mxCell>
        <mxCell id="qO4vvVn3k6_E3csfropo-64" value="- power: float" style="text;strokeColor=none;fillColor=none;align=left;verticalAlign=top;spacingLeft=4;spacingRight=4;overflow=hidden;rotatable=0;points=[[0,0.5],[1,0.5]];portConstraint=eastwest;" vertex="1" parent="qO4vvVn3k6_E3csfropo-59">
          <mxGeometry y="26" width="160" height="26" as="geometry" />
        </mxCell>
        <mxCell id="qO4vvVn3k6_E3csfropo-60" value="- isActive: bool" style="text;strokeColor=none;fillColor=none;align=left;verticalAlign=top;spacingLeft=4;spacingRight=4;overflow=hidden;rotatable=0;points=[[0,0.5],[1,0.5]];portConstraint=eastwest;" vertex="1" parent="qO4vvVn3k6_E3csfropo-59">
          <mxGeometry y="52" width="160" height="26" as="geometry" />
        </mxCell>
        <mxCell id="qO4vvVn3k6_E3csfropo-61" value="" style="line;strokeWidth=1;fillColor=none;align=left;verticalAlign=middle;spacingTop=-1;spacingLeft=3;spacingRight=3;rotatable=0;labelPosition=right;points=[];portConstraint=eastwest;strokeColor=inherit;" vertex="1" parent="qO4vvVn3k6_E3csfropo-59">
          <mxGeometry y="78" width="160" height="8" as="geometry" />
        </mxCell>
        <mxCell id="qO4vvVn3k6_E3csfropo-62" value="+ ctor()" style="text;strokeColor=none;fillColor=none;align=left;verticalAlign=top;spacingLeft=4;spacingRight=4;overflow=hidden;rotatable=0;points=[[0,0.5],[1,0.5]];portConstraint=eastwest;" vertex="1" parent="qO4vvVn3k6_E3csfropo-59">
          <mxGeometry y="86" width="160" height="26" as="geometry" />
        </mxCell>
        <mxCell id="qO4vvVn3k6_E3csfropo-67" value="1" style="endArrow=open;html=1;endSize=12;startArrow=diamondThin;startSize=14;startFill=1;edgeStyle=orthogonalEdgeStyle;align=left;verticalAlign=bottom;rounded=0;exitX=0;exitY=0.5;exitDx=0;exitDy=0;entryX=1.006;entryY=0.152;entryDx=0;entryDy=0;entryPerimeter=0;" edge="1" parent="1" source="qO4vvVn3k6_E3csfropo-58" target="qO4vvVn3k6_E3csfropo-59">
          <mxGeometry x="-0.7634" y="-7" relative="1" as="geometry">
            <mxPoint x="180" y="750" as="sourcePoint" />
            <mxPoint x="340" y="750" as="targetPoint" />
            <mxPoint as="offset" />
          </mxGeometry>
        </mxCell>
        <mxCell id="qO4vvVn3k6_E3csfropo-68" value="Passenger" style="swimlane;fontStyle=1;align=center;verticalAlign=top;childLayout=stackLayout;horizontal=1;startSize=26;horizontalStack=0;resizeParent=1;resizeParentMax=0;resizeLast=0;collapsible=1;marginBottom=0;" vertex="1" parent="1">
          <mxGeometry x="60" y="1040" width="160" height="112" as="geometry" />
        </mxCell>
        <mxCell id="qO4vvVn3k6_E3csfropo-72" value="- name: string" style="text;strokeColor=none;fillColor=none;align=left;verticalAlign=top;spacingLeft=4;spacingRight=4;overflow=hidden;rotatable=0;points=[[0,0.5],[1,0.5]];portConstraint=eastwest;" vertex="1" parent="qO4vvVn3k6_E3csfropo-68">
          <mxGeometry y="26" width="160" height="26" as="geometry" />
        </mxCell>
        <mxCell id="qO4vvVn3k6_E3csfropo-69" value="- privilege: bool" style="text;strokeColor=none;fillColor=none;align=left;verticalAlign=top;spacingLeft=4;spacingRight=4;overflow=hidden;rotatable=0;points=[[0,0.5],[1,0.5]];portConstraint=eastwest;" vertex="1" parent="qO4vvVn3k6_E3csfropo-68">
          <mxGeometry y="52" width="160" height="26" as="geometry" />
        </mxCell>
        <mxCell id="qO4vvVn3k6_E3csfropo-70" value="" style="line;strokeWidth=1;fillColor=none;align=left;verticalAlign=middle;spacingTop=-1;spacingLeft=3;spacingRight=3;rotatable=0;labelPosition=right;points=[];portConstraint=eastwest;strokeColor=inherit;" vertex="1" parent="qO4vvVn3k6_E3csfropo-68">
          <mxGeometry y="78" width="160" height="8" as="geometry" />
        </mxCell>
        <mxCell id="qO4vvVn3k6_E3csfropo-71" value="+ ctor()" style="text;strokeColor=none;fillColor=none;align=left;verticalAlign=top;spacingLeft=4;spacingRight=4;overflow=hidden;rotatable=0;points=[[0,0.5],[1,0.5]];portConstraint=eastwest;" vertex="1" parent="qO4vvVn3k6_E3csfropo-68">
          <mxGeometry y="86" width="160" height="26" as="geometry" />
        </mxCell>
        <mxCell id="qO4vvVn3k6_E3csfropo-77" value="" style="endArrow=block;startArrow=block;endFill=1;startFill=1;html=1;rounded=0;exitX=-0.012;exitY=0.123;exitDx=0;exitDy=0;exitPerimeter=0;entryX=0.25;entryY=0;entryDx=0;entryDy=0;" edge="1" parent="1" source="qO4vvVn3k6_E3csfropo-32" target="qO4vvVn3k6_E3csfropo-68">
          <mxGeometry width="160" relative="1" as="geometry">
            <mxPoint x="30" y="1010" as="sourcePoint" />
            <mxPoint x="190" y="1010" as="targetPoint" />
            <Array as="points">
              <mxPoint x="100" y="860" />
            </Array>
          </mxGeometry>
        </mxCell>
        <mxCell id="qO4vvVn3k6_E3csfropo-78" value="1" style="text;html=1;align=center;verticalAlign=middle;resizable=0;points=[];autosize=1;strokeColor=none;fillColor=none;" vertex="1" parent="1">
          <mxGeometry x="130" y="830" width="30" height="30" as="geometry" />
        </mxCell>
        <mxCell id="qO4vvVn3k6_E3csfropo-79" value="*" style="text;html=1;align=center;verticalAlign=middle;resizable=0;points=[];autosize=1;strokeColor=none;fillColor=none;" vertex="1" parent="1">
          <mxGeometry x="100" y="1010" width="30" height="30" as="geometry" />
        </mxCell>
      </root>
    </mxGraphModel>
  </diagram>
</mxfile>
